# xmcd
#
# Track frame offsets:
#	150
#	18412
#	40923
#	63609
#	84117
#	103210
#	120499
#	143376
#	165586
#	186188
#
# Disc length: 2735 seconds
#
# Revision: 0
# Processed by: cddbd v1.5.2PL0 Copyright (c) Steve Scherf et al.
# Submitted via: EasyCDDAExtractor 9.0.0.1
#
DISCID=790aad0a
DTITLE=Susan Santos and The Papa's Red Band - Take Me Home
DYEAR=2010
DGENRE=Blues
TTITLE0=Take Me Home
TTITLE1=Good Man
TTITLE2=On A Quiet Sea
TTITLE3=Love Me Kill Me
TTITLE4=Tell Me Lies
TTITLE5=Rainy Day Blues
TTITLE6=Love Tattoo
TTITLE7=Hot Sticky Night
TTITLE8=Bad
TTITLE9=Are You Ready
EXTD=
EXTT0=
EXTT1=
EXTT2=
EXTT3=
EXTT4=
EXTT5=
EXTT6=
EXTT7=
EXTT8=
EXTT9=
PLAYORDER=
